<svg version="1" xmlns="http://www.w3.org/2000/svg" width="640" height="640" viewBox="0 0 480.000000 480.000000"><path d="M227 .6c-3 .2-9.8.9-15 1.5C111.4 13.5 28.2 88.6 6 188c-7.9 35.5-7.2 76.9 2 112 17.1 65.4 61.3 121 121 152.3 63.8 33.4 142.9 36 207.9 6.7 91.9-41.4 147.8-133.1 142-233.1-6-103.7-78-191.5-178.9-217.9-20.6-5.4-53.2-8.7-73-7.4zM257.9 104c4.6.5 8.6 1.2 8.9 1.4.2.3-.3 6.9-1.2 14.8-1 7.9-2.4 20.4-3.2 27.8-.8 7.4-2.1 18.4-2.9 24.5-.8 6-1.7 14.6-2 19-.7 9.1-.8 9.1 6.2-3.3 2.6-4.5 5.2-8.2 5.8-8.2 1.9 0 13.2 7.3 18.9 12.2 6.9 6.1 14.5 17.4 18.4 27.6 3.7 9.4 5.2 21.9 5.2 42.7v14.3l-16 15.5-16.1 15.6.3 6.4.3 6.5 10.5-10.1 10.5-10.2.3 17.1.2 17.1-21.1 20.9c-11.6 11.5-21.7 21.4-22.4 22.1-.7.7-1.5.9-1.9.6-.3-.4-.6-23.7-.6-52V275h36v-30l-51.7.2-51.8.3.1 14.5.1 14.5 17.7.3 17.6.2v104.5l-10.2-10c-5.7-5.5-16-15.6-23-22.5L178 334.5v-16.7c0-9.3.3-16.8.8-16.8.4 0 5.2 4.5 10.7 10 5.5 5.5 10.3 10 10.7 10 .5 0 .8-2.9.8-6.4v-6.4l-16-15.5-16-15.5v-19.6c0-22.6 1.3-31 6.5-42.2 4.1-8.9 9.6-16.5 16.9-23.2 6.3-5.7 17.2-12.6 19-11.9.6.3 3.5 4.8 6.5 10.1 3 5.2 5.6 9.4 5.8 9.2.4-.3-2.4-25.3-8.2-73.5-1.3-11.3-2.3-20.7-2.1-20.9 1.8-1.7 32.6-2.6 44.5-1.2z"/></svg>